<svg width="22" height="24" viewBox="0 0 22 24" fill="none" xmlns="http://www.w3.org/2000/svg">
<path d="M21.0574 6.17962C21.0451 5.53166 21.0333 4.91953 21.0333 4.32734C21.0333 3.86341 20.6573 3.48728 20.1933 3.48728C16.6006 3.48728 13.8653 2.45479 11.5852 0.237924C11.259 -0.0792828 10.74 -0.0791708 10.4139 0.237924C8.13413 2.45479 5.39922 3.48728 1.80678 3.48728C1.34285 3.48728 0.966723 3.86341 0.966723 4.32734C0.966723 4.91964 0.955074 5.53199 0.942642 6.18007C0.827497 12.2101 0.66979 20.4686 10.7244 23.9538C10.8136 23.9847 10.9066 24.0001 10.9995 24.0001C11.0925 24.0001 11.1856 23.9847 11.2746 23.9538C21.33 20.4685 21.1726 12.2098 21.0574 6.17962ZM10.9996 22.2686C2.37646 19.1361 2.50684 12.2739 2.62254 6.21211C2.62949 5.8483 2.63621 5.4957 2.64091 5.15004C6.00564 5.00802 8.6963 3.98841 10.9996 1.98189C13.3032 3.98841 15.9943 5.00813 19.3593 5.15004C19.364 5.49559 19.3707 5.84797 19.3776 6.21155C19.4932 12.2735 19.6235 19.136 10.9996 22.2686Z" fill="white"/>
<path d="M13.8924 9.08181L9.83779 13.1362L8.1076 11.406C7.77952 11.078 7.2476 11.078 6.91964 11.406C6.59157 11.7342 6.59157 12.266 6.91964 12.5941L9.24381 14.9182C9.40779 15.0822 9.62284 15.1642 9.83779 15.1642C10.0527 15.1642 10.2678 15.0822 10.4318 14.9182L15.0802 10.2699C15.4084 9.94181 15.4084 9.40989 15.0803 9.08193C14.7524 8.75385 14.2204 8.75374 13.8924 9.08181Z" fill="white"/>
</svg>
