<svg width="24" height="22" viewBox="0 0 24 22" fill="none" xmlns="http://www.w3.org/2000/svg">
<path d="M23.7113 7.60903L19.4249 1.32103C19.1152 0.866438 18.6018 0.595032 18.0515 0.595032H5.9482C5.39789 0.595032 4.88442 0.866438 4.57481 1.32089L0.287902 7.60964C-0.147473 8.24991 -0.0830664 9.10673 0.44048 9.67303L10.7776 20.8692C11.4354 21.5844 12.566 21.5825 13.221 20.8702L23.5588 9.67341C24.063 9.12802 24.1636 8.27419 23.7113 7.60903ZM6.52832 9.33848L10.1913 18.1611L2.04557 9.33848H6.52832ZM13.0136 2.00128L15.881 7.93219H8.11861L10.9859 2.00128H13.0136ZM15.9487 9.33848L11.9998 18.8497L8.05097 9.33844H15.9487V9.33848ZM17.4713 9.33848H21.954L13.8083 18.1611L17.4713 9.33848ZM18.2629 2.11298L22.2297 7.93223H17.443L14.5756 2.00133H18.0515C18.1362 2.00128 18.2152 2.043 18.2629 2.11298ZM5.73684 2.11284C5.78442 2.043 5.8634 2.00133 5.94815 2.00133H9.42403L6.55668 7.93223H1.7699L5.73684 2.11284Z" fill="white"/>
</svg>
